<svg>
    <svg id="arrow" width="13" height="8" viewBox="0 0 13 8" fill="none" xmlns="http://www.w3.org/2000/svg">
        <path d="M7.54022 6.12601L6.12601 7.54023L0 1.41421L1.41421 0L7.54022 6.12601Z" fill="black"/>
        <path d="M10.8425 7.78815e-06L12.2567 1.41422L6.13072 7.54023L4.71651 6.12602L10.8425 7.78815e-06Z" fill="black"/>
    </svg>

    <svg id="logo" fill="none" xmlns="http://www.w3.org/2000/svg">
        <path d="M43.8368 9.39754L38.9912 10.6699L25.5463 14.1895C20.7982 15.3644 16.6448 16.9292 12.6425 15.5594C7.20214 13.2097 7.29964 7.09659 11.3555 0.593506C4.1846 6.51161 -8.7192 25.4359 8.73285 27.3468C10.9558 27.6393 14.9142 26.8593 19.2138 25.0508L38.9912 16.9341L78 0.983496L43.8368 9.39754Z" fill="black"/>
    </svg>

    <svg id="find" width="26" height="26" viewBox="0 0 26 26" fill="none" xmlns="http://www.w3.org/2000/svg">
        <path d="M24.6682 22.9006L17.8542 16.0867C19.4091 14.0823 20.1417 11.5607 19.9031 9.0352C19.6644 6.50969 18.4723 4.17004 16.5695 2.49242C14.6667 0.814792 12.1961 -0.0747192 9.66054 0.00492096C7.12501 0.0845611 4.71511 1.12737 2.92132 2.9211C1.12752 4.71484 0.0846422 7.12469 0.00492985 9.66019C-0.0747825 12.1957 0.814664 14.6663 2.49224 16.5692C4.16983 18.472 6.50946 19.6642 9.03498 19.9029C11.5605 20.1417 14.0821 19.4091 16.0865 17.8543L22.9005 24.6682C23.0166 24.7843 23.1544 24.8764 23.306 24.9392C23.4577 25.002 23.6202 25.0343 23.7844 25.0343C23.9485 25.0343 24.111 25.002 24.2627 24.9392C24.4143 24.8764 24.5521 24.7843 24.6682 24.6682H24.6682C24.7843 24.5522 24.8764 24.4144 24.9392 24.2627C25.002 24.1111 25.0343 23.9486 25.0343 23.7844C25.0343 23.6203 25.002 23.4577 24.9392 23.3061C24.8764 23.1544 24.7843 23.0166 24.6682 22.9006ZM9.99024 17.447C8.51537 17.447 7.07362 17.0097 5.8473 16.1903C4.62098 15.371 3.66518 14.2063 3.10077 12.8437C2.53635 11.4812 2.38867 9.98179 2.6764 8.53527C2.96413 7.08875 3.67434 5.76004 4.71723 4.71715C5.76012 3.67427 7.08885 2.96406 8.53538 2.67634C9.98191 2.38861 11.4813 2.5363 12.8439 3.10071C14.2065 3.66513 15.3711 4.62092 16.1905 5.84723C17.0099 7.07354 17.4472 8.51529 17.4472 9.99015C17.4448 11.9671 16.6585 13.8625 15.2605 15.2604C13.8626 16.6583 11.9672 17.4447 9.99024 17.447V17.447Z" fill="black"/>
    </svg>

    <svg id="basket" width="31" height="22" viewBox="0 0 31 22" fill="none" xmlns="http://www.w3.org/2000/svg">
        <path d="M27.7815 0H0V2.46835H4.30717V11.1652C4.30848 12.3628 4.78483 13.511 5.6317 14.3579C6.47858 15.2047 7.62681 15.681 8.82445 15.6823H24.4984C25.696 15.681 26.8442 15.2047 27.6911 14.3579C28.538 13.511 29.0143 12.3628 29.0156 11.1652L29.9413 2.46835L30.2498 0H27.7815ZM26.5473 11.1652C26.5472 11.7085 26.3313 12.2296 25.947 12.6138C25.5628 12.998 25.0417 13.2139 24.4983 13.2139H8.82445C8.28109 13.2139 7.75999 12.998 7.37576 12.6138C6.99153 12.2296 6.77562 11.7085 6.77553 11.1652V2.46835H27.4729L26.5473 11.1652Z" fill="black"/>
        <path d="M11.2196 21.7327C12.2222 21.7327 13.035 20.92 13.035 19.9174C13.035 18.9148 12.2222 18.1021 11.2196 18.1021C10.2171 18.1021 9.4043 18.9148 9.4043 19.9174C9.4043 20.92 10.2171 21.7327 11.2196 21.7327Z" fill="black"/>
        <path d="M22.1029 21.7327C23.1055 21.7327 23.9183 20.92 23.9183 19.9174C23.9183 18.9148 23.1055 18.1021 22.1029 18.1021C21.1003 18.1021 20.2876 18.9148 20.2876 19.9174C20.2876 20.92 21.1003 21.7327 22.1029 21.7327Z" fill="black"/>
    </svg>
</svg>
